<?xml version="1.0" standalone="no"?>
<!DOCTYPE svg PUBLIC "-//W3C//DTD SVG 20010904//EN"
 "http://www.w3.org/TR/2001/REC-SVG-20010904/DTD/svg10.dtd">
<svg version="1.0" xmlns="http://www.w3.org/2000/svg"
 width="512.000000pt" height="512.000000pt" viewBox="0 0 512.000000 512.000000"
 preserveAspectRatio="xMidYMid meet">
<metadata>
Created by potrace 1.14, written by Peter Selinger 2001-2017
</metadata>
<g transform="translate(0.000000,512.000000) scale(0.100000,-0.100000)"
fill="#000000" stroke="none">
<path d="M2295 4764 c-309 -33 -570 -101 -753 -199 -55 -29 -71 -33 -112 -28
-55 6 -111 -10 -237 -68 -298 -137 -487 -350 -591 -669 -47 -141 -66 -234
-127 -595 -109 -648 -196 -910 -410 -1236 l-65 -99 33 0 c17 0 75 9 127 20 52
11 97 16 101 12 3 -4 18 -43 33 -87 113 -330 436 -654 850 -855 134 -65 350
-150 380 -150 10 0 4 26 -24 97 -43 112 -82 243 -71 243 15 0 240 -94 346
-144 127 -61 288 -155 395 -234 99 -73 273 -249 334 -340 27 -39 52 -72 55
-72 3 0 25 29 48 63 149 221 382 408 708 568 169 83 364 163 373 155 7 -8 -34
-146 -73 -246 -19 -46 -32 -86 -30 -88 7 -7 207 64 318 113 237 104 429 235
602 409 159 159 281 351 331 517 17 56 20 60 44 55 84 -19 220 -39 225 -34 3
3 -22 48 -56 99 -33 52 -86 143 -116 203 -140 279 -201 493 -287 1011 -74 440
-115 606 -191 771 -111 241 -303 418 -582 537 -81 34 -110 41 -168 42 -60 1
-82 8 -155 42 -161 77 -359 136 -570 169 -101 15 -585 28 -685 18z m-910
-1044 c-19 -36 -21 -60 -3 -42 7 7 24 12 39 12 65 0 95 -115 44 -165 -29 -30
-35 -31 -69 -4 -15 12 -29 20 -30 18 -2 -2 3 -25 11 -50 21 -64 79 -138 137
-174 45 -27 58 -30 132 -30 76 0 86 2 128 32 40 28 46 30 58 16 7 -9 34 -33
60 -54 44 -34 46 -38 30 -52 -10 -9 -44 -29 -77 -44 -54 -25 -70 -28 -170 -28
-103 0 -114 2 -177 32 -164 77 -260 239 -245 412 9 105 21 128 70 140 76 17
80 15 62 -19z m2395 19 c58 -12 67 -25 81 -109 28 -178 -71 -364 -238 -443
-64 -30 -75 -32 -179 -32 -107 0 -112 1 -187 38 -42 21 -77 42 -77 46 0 5 12
16 26 26 14 9 43 32 64 51 33 30 39 32 51 18 45 -55 176 -72 255 -33 24 11 61
38 83 60 42 42 91 130 91 163 0 17 -2 18 -17 4 -30 -26 -51 -28 -76 -8 -41 33
-44 108 -5 149 21 23 67 28 86 9 16 -16 15 -5 -2 37 -8 19 -13 35 -11 35 2 0
27 -5 55 -11z m-1149 -357 c35 -27 86 -63 112 -81 42 -29 48 -37 42 -58 -31
-126 -52 -223 -46 -223 3 0 44 34 90 75 46 41 89 75 95 75 14 0 226 -158 274
-203 44 -41 87 -105 96 -139 4 -17 0 -42 -8 -63 l-15 -35 -53 25 c-102 48
-217 30 -314 -50 -103 -85 -221 -296 -295 -530 -23 -71 -43 -137 -46 -145 -2
-8 -20 37 -39 100 -100 327 -240 552 -390 626 -46 23 -64 26 -126 22 -48 -2
-88 -11 -116 -24 l-42 -22 -15 21 c-52 74 24 180 250 346 l110 81 30 -28 c16
-15 57 -52 89 -82 33 -30 61 -50 63 -45 2 6 -10 62 -25 125 l-28 115 111 81
c60 45 115 83 121 83 6 1 40 -21 75 -47z m-475 -817 c37 -8 129 -183 168 -321
10 -32 19 -67 22 -76 3 -11 -7 -6 -28 14 -58 54 -131 105 -228 158 -117 63
-170 115 -170 164 0 38 16 52 75 67 28 7 113 4 161 -6z m1014 -14 c60 -43 23
-113 -95 -182 -146 -85 -211 -128 -259 -170 l-47 -42 7 29 c26 113 124 335
162 367 36 30 189 29 232 -2z"/>
</g>
</svg>
