<?xml version="1.0" encoding="UTF-8"?>
<svg width="18px" height="17px" viewBox="0 0 18 17" version="1.1" xmlns="http://www.w3.org/2000/svg" xmlns:xlink="http://www.w3.org/1999/xlink">
    <title>Icon/utility/date</title>
    <defs>
        <filter color-interpolation-filters="auto" id="filter-1">
            <feColorMatrix in="SourceGraphic" type="matrix" values="0 0 0 0 1.000000 0 0 0 0 1.000000 0 0 0 0 1.000000 0 0 0 1.000000 0"></feColorMatrix>
        </filter>
        <path d="M5,18 L19,18 L19,8 L5,8 L5,18 Z M17,3 C17.553,3 18,3.447 18,4 L18,4 L18,5 L19,5 C20.1045695,5 21,5.8954305 21,7 L21,7 L21,18 C21,19.1045695 20.1045695,20 19,20 L19,20 L5,20 C3.8954305,20 3,19.1045695 3,18 L3,18 L3,7 C3,5.8954305 3.8954305,5 5,5 L5,5 L6,5 L6,4 C6,3.447 6.448,3 7,3 C7.552,3 8,3.447 8,4 L8,4 L8,5 L16,5 L16,4 C16,3.447 16.447,3 17,3 Z M9,14 L7,14 L7,16 L9,16 L9,14 Z M13,14 L11,14 L11,16 L13,16 L13,14 Z M17,14 L15,14 L15,16 L17,16 L17,14 Z M9,10 L7,10 L7,12 L9,12 L9,10 Z M13,10 L11,10 L11,12 L13,12 L13,10 Z M17,10 L15,10 L15,12 L17,12 L17,10 Z" id="path-2"></path>
    </defs>
    <g id="Responsive" stroke="none" stroke-width="1" fill="none" fill-rule="evenodd">
        <g id="Admissions-Overview_mobile" transform="translate(-259.000000, -10246.000000)">
            <g id="Contact/Mobile" transform="translate(0.000000, 9512.000000)">
                <g id="Group-4" transform="translate(0.000000, 252.000000)">
                    <g id="Group-42" transform="translate(30.000000, 30.000000)">
                        <g id="Group-14" transform="translate(0.000000, 410.000000)">
                            <g id="Icon/utility/date" transform="translate(226.000000, 39.000000)" filter="url(#filter-1)">
                                <g>
                                    <mask id="mask-3" fill="white">
                                        <use xlink:href="#path-2"></use>
                                    </mask>
                                    <use id="Icon-color" fill="#102B52" xlink:href="#path-2"></use>
                                </g>
                            </g>
                        </g>
                    </g>
                </g>
            </g>
        </g>
    </g>
</svg>