<?xml version="1.0" encoding="utf-8"?>
<!-- Generator: Adobe Illustrator 25.0.0, SVG Export Plug-In . SVG Version: 6.00 Build 0)  -->
<svg version="1.1" id="Layer_1" xmlns="http://www.w3.org/2000/svg" xmlns:xlink="http://www.w3.org/1999/xlink" x="0px" y="0px"
	 viewBox="0 0 300 40" style="enable-background:new 0 0 300 40;" xml:space="preserve">
<style type="text/css">
	.st0{fill:#FFFFFF;}
</style>
<g>
	<path class="st0" d="M67.5,2.1c2.3,0,4.6,0.1,6.9,0.1s4.7-0.1,7-0.2v5.2c-0.1,0-0.3,0-0.4,0c-0.9,0.1-1.8,0.1-2.6,0.2
		c-0.8,0.1-0.8,0.2-0.9,1c-0.1,1.2-0.1,2.5-0.2,3.7C77.2,18,77.2,24,77.4,29.9c0,0.6,0.1,1.3,0.1,1.9c0,0.3,0.1,0.4,0.4,0.4
		c1,0.1,1.9,0.2,2.9,0.3l0.6,0.1v5.2c-6.2-0.3-12.3-0.2-18.5,0v-5.2c0.1,0,2.3-0.1,3.2-0.1c0.6,0,0.7-0.2,0.8-0.8
		c0.3-1.2,0.2-14,0.2-14l-9.9,20.1h-3.7c0,0-2.5-5.1-3.7-7.7c-0.9,0.5-1.8,1-2.7,1.3c-1,0.3-1.7,0.5-2.9,0.6c0,0.1,0.1,0.1,0.2,0.2
		c0.6,0.1,1.1,0.1,1.7,0.2s1.3,0.1,1.9,0.2v5.2c0,0-0.5,0-0.7-0.1c-5.9-0.3-11.9-0.1-17.8,0.1v-5.2c0.2,0,2.4-0.1,3.3-0.1
		c0.6,0,0.6-0.2,0.7-0.7c0.1-0.8,0.1-1.5,0.2-2.3c-1.6-1.2-2.8-2.6-3.6-4.4c-2.1,4.3-6.3,12.8-6.3,12.8H20c0,0-3-6.1-4.3-9
		c-1.6-3.4-5.4-11.2-5.4-11.2s0.1,8.7,0.1,12.8c0,0.4,0,0.8,0.1,1.2c0.1,0.5,0.2,0.5,0.6,0.6c0.6,0.2,3.3,0.3,3.3,0.3v5.2
		c-2.4-0.1-4.8-0.2-7.2-0.2S2.4,37.7,0,37.8v-5.2c0.2,0,2.4-0.2,3.3-0.3c0.5-0.1,0.5-0.2,0.5-0.6c0.1-0.6,0.1-1.3,0.2-1.9
		c0.2-5.1,0.2-10.2,0.2-15.3c0-1.8,0-3.5-0.1-5.3c0-0.4,0-0.8-0.1-1.2c0-0.3-0.1-0.4-0.5-0.4c-1-0.1-2.1-0.2-3.1-0.3
		c-0.1,0-0.2,0-0.3,0V2.2c4.8,0.1,9.6,0.1,14.5,0C17.8,9,21,15.9,24.2,22.9c0.9-1.8,9-19,9.8-20.7c2.4,0,4.7,0.1,7,0.1
		s4.7-0.1,7-0.1c3.2,6.8,6.4,13.7,9.5,20.6c0,0,0,0,0.1,0l0,0l0,0v-0.1c0.1-0.2,0.2-0.3,0.2-0.5C61.2,15.5,67.5,2.1,67.5,2.1z
		 M1.2,6.2l0.6,0.1c0.7,0.1,1.4,0.1,2.1,0.2C4.7,6.7,5,7,5.1,7.8c0.1,0.8,0.2,1.6,0.2,2.4c0,3.8,0.1,7.6,0,11.4
		c0,2.9-0.1,5.9-0.2,8.8c0,0.6-0.2,1.3-0.2,1.9c-0.1,0.6-0.3,0.8-1,1s-2.3,0.4-2.7,0.5v2.9c4-0.2,8.1-0.3,12,0v-2.9
		c-0.5,0-2.3-0.2-2.8-0.3c-0.4-0.1-0.7-0.4-0.8-0.8c-0.1-0.4-0.2-0.7-0.2-1.1c-0.1-1.3-0.1-2.5-0.1-3.8c0-4.8,0-15.1,0-15.1
		s7.7,16.1,11.6,24h2.3c0.1-0.1,0.1-0.3,0.2-0.4c1-2,1.9-4,2.9-6c1.1-2.2,2.1-4.3,3.2-6.5c0.1-0.2,0.2-0.4,0.1-0.6
		c-0.1-0.4-0.1-0.8-0.2-1.1c-0.3-2.1,0-4.1,1-6c1.2-2.3,3.1-4,5.4-5.2c3.8-1.9,7.8-2.1,11.9-1c1.3,0.4,2.6,1,3.6,1.9
		c0,0,0.1,0,0.2,0.1l-4-8.5c-4.2,0.2-8.4,0.2-12.6,0c-1.2,2.5-2.4,5-3.5,7.4c-1.2,2.5-2.3,4.9-3.5,7.4s-2.3,4.9-3.5,7.4
		c-3.5-7.5-6.9-14.9-10.3-22.2c-4.2,0-8.4,0-12.6,0v2.8H1.2z M57.7,25.6c-0.6-1.4-1.2-2.6-1.8-3.9s-1.2-2.5-1.7-3.8
		c-0.6-1.2-1.1-2.5-1.8-3.7c0,0.1,0,0.1,0,0.2c0,0.1,0,0.1,0,0.2c0,1.3-0.6,2.3-1.8,2.9c-0.6,0.3-1.3,0.4-2,0.4
		c-1.5-0.1-3.3-1.1-3.7-2.9c0-0.3-0.2-0.5-0.5-0.6c-0.3-0.3-0.7-0.4-1-0.4c1.7,3.6,3.5,7.2,5.2,10.8c0.2-0.5,0.4-1,0.5-1.4h4.8
		c-0.3,2.4-1.3,4.4-3.1,5.9l3.5,7.2h2.2h0.1c3.9-7.9,11.8-23.9,11.8-23.9s0,8.7,0,12.8c0,1.8,0,6.3-0.3,7.1c-0.2,0.7-0.5,0.9-1.1,1
		c-0.1,0-0.8,0.2-2.8,0.2v2.9c2.7-0.1,5.4-0.1,8.1-0.1s5.4,0.1,8,0.1v-2.8c-0.1,0-0.2,0-0.4,0c-0.8-0.1-1.6-0.2-2.4-0.3
		c-0.5-0.1-0.8-0.4-0.9-0.9c-0.1-0.2-0.1-0.4-0.1-0.7c-0.1-1.1-0.1-2.1-0.2-3.2c0-4-0.1-7.9-0.1-11.9c0-2.5,0.1-5,0.2-7.5
		c0-0.5,0.1-1.1,0.2-1.6c0.1-0.6,0.4-0.9,1-1c0.7-0.1,1.3-0.2,2-0.3c0.2,0,0.4,0,0.7-0.1v-3c-4,0.2-8,0.2-12,0L57.7,25.6z
		 M49.9,24.6c-0.1,0.2-0.1,0.4-0.2,0.5c-0.6,1.4-1.6,2.4-3,2.9c-1.6,0.6-3.3,0.7-5.1,0.5c-1.5-0.2-2.7-0.9-3.7-2
		c-0.5-0.6-0.9-1.3-1.2-2c-0.8-2.1-0.9-4.2-0.5-6.4c0.2-1.1,0.6-2.1,1.2-3c0.9-1.2,2.1-2,3.5-2.2c0.9-0.2,1.9-0.2,2.8,0
		c1.1,0.2,2,0.8,2.2,2c0.1,0.5,0.4,0.9,0.8,1.2c0.8,0.6,1.6,0.8,2.6,0.6c1.3-0.3,2-1.3,1.7-2.6c-0.2-0.7-0.6-1.3-1.2-1.7
		c-0.6-0.5-1.3-0.9-2.1-1.1c-2.4-0.8-5-1-7.5-0.6c-2.4,0.4-4.6,1.3-6.5,2.9c-1,0.9-1.9,1.9-2.5,3.1c-0.9,1.7-1.1,3.6-0.8,5.5
		c0.3,1.8,0.9,3.4,2.1,4.8c1.1,1.3,2.6,2.3,4.2,2.9c2.5,1,5.1,1.3,7.7,1c1.5-0.2,3-0.6,4.4-1.4c1.7-1,2.9-2.4,3.6-4.3
		c0.1-0.2,0.1-0.3,0.2-0.5L49.9,24.6z M34.7,30.2c0,0.2,0,1.6-0.3,2.4c-0.1,0.4-0.4,0.8-0.9,0.9c-0.1,0-0.7,0.2-0.9,0.2
		c-0.7,0.1-1.9,0.1-2.1,0.1v2.9c5.3-0.2,10.6-0.3,15.9,0c0.1,0,0.2,0,0.3,0v-2.9c-1-0.1-2-0.2-2.8-0.3c-0.5-0.1-0.9-0.5-1-1
		c0-0.1-0.1-0.2-0.1-0.3C40.1,32.2,37.2,31.6,34.7,30.2L34.7,30.2z M42.7,27.5V14c-1.4-0.1-2.6,0.2-3.6,1.1
		c-0.6,0.6-1.1,1.4-1.3,2.2c-0.6,1.7-0.6,3.4-0.3,5.2c0.2,1,0.5,1.9,1,2.8C39.5,26.8,40.9,27.4,42.7,27.5L42.7,27.5z M44,17.9
		c-0.2,0.8-0.1,9.2,0,9.6c1.4-0.1,2.8-0.4,3.8-1.6L44,17.9z"/>
	<path class="st0" d="M125.8,26.6h-1.6c-0.1-1.3-0.1-2.7-0.2-4c-0.1-1.3-0.1-2.7-0.2-4.1c-0.3,1.4-0.6,2.7-0.9,4
		c-0.3,1.3-0.7,2.6-1,3.9h-1.2c-0.6-2.6-1.3-5.2-1.9-7.8c-0.1,2.6-0.2,5.3-0.4,7.9h-1.5c0.2-3.7,0.5-7.3,0.7-11h1.9
		c0.6,2.7,1.3,5.4,1.9,8.1l1.8-8.1h1.9c0.1,1.8,0.2,3.6,0.3,5.4C125.5,22.7,125.7,24.7,125.8,26.6z"/>
	<path class="st0" d="M98.9,26.6h-1.6c-0.1-2.7-0.3-5.3-0.4-7.9c-0.2,0.9-0.4,1.7-0.6,2.6s-0.4,1.7-0.6,2.6s-0.4,1.7-0.7,2.6h-1.2
		c-0.6-2.6-1.2-5.1-1.9-7.8c-0.1,0.9-0.1,1.8-0.1,2.6c-0.1,0.8-0.1,1.7-0.1,2.6s-0.1,1.7-0.1,2.6h-1.5c0.2-3.6,0.5-7.3,0.7-11h1.9
		c0.6,2.7,1.3,5.4,1.9,8l1.8-8h1.9C98.4,19.2,98.6,22.9,98.9,26.6z"/>
	<path class="st0" d="M208,23.5l-0.2-8h1.5v11h-1.7c-0.5-1.3-2.9-7.8-2.9-7.8v7.8h-1.5v-11c0.5,0,1.6,0,1.6,0L208,23.5z"/>
	<path class="st0" d="M145.8,15.7c0.3,0,0.5-0.1,0.8-0.1c0.8-0.1,1.7-0.1,2.5,0c1.7,0.3,2.5,1.5,2.4,3.2c-0.1,1.1-0.6,1.9-1.5,2.4
		c0,0-0.1,0.1-0.2,0.1c0.8,0.4,1.1,1.1,1.3,1.8c0.2,1.1,0.5,2.3,0.7,3.4H150c-0.1-0.4-0.2-0.7-0.3-1.1c-0.1-0.6-0.2-1.3-0.3-1.9
		c0-0.2-0.1-0.4-0.1-0.6c-0.3-0.8-0.7-1.1-1.7-1v4.5h-1.8V15.7z M147.5,20.6c1,0.2,1.7-0.2,2-1.1c0.2-0.5,0.2-1.1,0-1.7
		c-0.1-0.4-0.5-0.7-0.9-0.8c-0.3-0.1-0.7-0.1-1.1,0V20.6z"/>
	<path class="st0" d="M250.9,26.6h-1.7V15.7c0.2,0,0.5-0.1,0.7-0.1c0.8-0.1,1.7-0.1,2.5,0c1.8,0.3,2.5,1.6,2.4,3.2
		c-0.1,1-0.6,1.8-1.5,2.4c-0.1,0-0.1,0.1-0.2,0.1c0.7,0.3,1,1,1.2,1.7c0.2,0.9,0.4,1.8,0.6,2.8c0.1,0.2,0.2,0.8,0.2,0.8h-1.8
		c0,0-0.1-0.4-0.2-0.7c-0.2-0.8-0.3-1.5-0.4-2.3c0-0.2-0.1-0.4-0.2-0.7c-0.2-0.7-0.6-0.9-1.3-0.9c-0.1,0-0.2,0-0.3,0
		C250.9,23.5,250.9,26.6,250.9,26.6z M251,20.6c1,0.2,1.7-0.2,2-1.1c0.2-0.5,0.2-1.1,0-1.7c-0.1-0.4-0.5-0.7-0.9-0.8
		c-0.4-0.1-0.7-0.1-1.1,0V20.6z"/>
	<path class="st0" d="M164.2,26.6h-1.8c-0.1-0.1-0.1-0.3-0.1-0.4c-0.1-0.7-0.3-1.5-0.4-2.2c-0.1-0.3-0.1-0.6-0.2-0.9
		c-0.3-0.8-0.7-1.1-1.7-1v4.5h-1.7V15.7c0.2,0,0.5-0.1,0.7-0.1c0.9-0.1,1.8-0.1,2.6,0c1.3,0.2,2,1,2.2,2.3c0.2,1.3-0.2,2.7-1.5,3.3
		l-0.1,0.1c0.8,0.4,1.1,1.1,1.3,1.9c0.2,0.8,0.3,1.7,0.5,2.5C164,26,164.1,26.3,164.2,26.6z M160,20.6c1.3,0.2,1.9-0.5,2.1-1.4
		c0.1-0.4,0-0.7,0-1.1c-0.2-1-1.1-1.4-2.1-1.1V20.6z"/>
	<path class="st0" d="M132.6,15.6h1.7c0,0.2,0,0.3,0,0.5c0,2.2,0,4.5,0,6.7c0,0.4,0,0.8,0.1,1.1c0,0.3,0.1,0.5,0.3,0.7
		c0.2,0.4,0.5,0.5,1,0.5c0.4,0,0.7-0.2,0.9-0.6c0.1-0.4,0.2-0.8,0.3-1.2c0-0.3,0-0.5,0-0.8c0-2.2,0-4.3,0-6.5v-0.5
		c0.6,0,1.1,0,1.7,0c0,0.2,0,0.3,0,0.5c0,2.2,0,4.3,0,6.5c0,0.7-0.1,1.5-0.3,2.2c-0.6,1.8-2.4,2.5-4,1.8c-0.5-0.2-1-0.7-1.2-1.2
		c-0.2-0.5-0.4-1.1-0.4-1.6c0-0.4-0.1-0.9-0.1-1.3c0-2.1,0-4.1,0-6.2V15.6z"/>
	<path class="st0" d="M190.1,15.6h1.7c0,0.2,0,0.3,0,0.5c0,2.2,0,4.5,0,6.7c0,0.4,0.1,0.9,0.1,1.3c0,0.2,0.1,0.4,0.2,0.5
		c0.2,0.4,0.5,0.6,0.9,0.5c0.4,0,0.8-0.2,0.9-0.6c0.1-0.3,0.2-0.6,0.3-0.9c0-0.4,0.1-0.7,0.1-1.1c0-2.1,0-4.3,0-6.4v-0.5h1.7
		c0,0.1,0,0.2,0,0.3c0,2.3,0,4.5,0,6.8c0,0.7-0.1,1.5-0.4,2.2c-0.3,0.8-0.8,1.4-1.6,1.7c-0.7,0.2-1.5,0.2-2.2,0
		c-0.7-0.2-1.1-0.7-1.4-1.4c-0.3-0.7-0.4-1.5-0.4-2.3c0-1.6,0-3.3,0-4.9L190.1,15.6L190.1,15.6z"/>
	<polygon class="st0" points="226.5,15.6 228.1,24.4 229.7,15.6 231.5,15.6 229,26.6 227.1,26.6 224.6,15.6 	"/>
	<polygon class="st0" points="242.4,17.1 239.6,17.1 239.6,20.1 242.2,20.1 242.2,21.5 239.6,21.5 239.6,25 242.5,25 242.5,26.6 
		237.8,26.6 237.8,15.6 242.4,15.6 	"/>
	<path class="st0" d="M261.1,26.2l0.3-1.5c0.4,0.1,0.8,0.2,1.2,0.3c0.2,0,0.5,0.1,0.7,0c1.1-0.1,1.7-1,1.4-2
		c-0.1-0.3-0.3-0.7-0.6-0.9c-0.3-0.3-0.6-0.5-0.9-0.7c-0.5-0.4-1-0.8-1.4-1.3c-0.5-0.8-0.7-1.6-0.4-2.5c0.3-1.3,1.4-2.1,2.8-2.2
		c0.7-0.1,1.4,0.1,2,0.4c-0.1,0.5-0.2,1-0.3,1.5c-0.5-0.2-0.9-0.4-1.4-0.3c-0.6,0-1.1,0.2-1.3,0.8c-0.3,0.6-0.1,1.2,0.3,1.6
		c0.3,0.3,0.7,0.5,1,0.8c0.4,0.3,0.8,0.6,1.1,0.9c0.9,0.9,1.2,2.1,0.8,3.4c-0.2,0.8-0.7,1.5-1.5,1.8
		C263.7,26.9,262.5,26.8,261.1,26.2z"/>
	<path class="st0" d="M174.4,15.6h1.8l-2.5,6.5v4.5H172v-4.5l-2.4-6.5h1.9l1.5,4.9L174.4,15.6z"/>
	<polygon class="st0" points="292.9,15.6 294.7,15.6 296.3,20.6 297.7,15.6 299.6,15.6 297.1,22.1 297,26.6 295.3,26.6 295.3,22.1 	
		"/>
	<path class="st0" d="M110.8,15.7l-0.3,1.4l-0.4-0.1c-1-0.2-1.8,0.1-2.4,0.9c-0.3,0.5-0.5,1.1-0.6,1.7c-0.2,1.1-0.1,2.2,0.1,3.3
		c0,0.2,0.1,0.4,0.2,0.6c0.5,1.2,1.4,1.7,2.7,1.5c0.1,0,0.2-0.1,0.4-0.1l0.2,1.4c-0.1,0.1-0.2,0.1-0.4,0.1c-0.7,0.2-1.4,0.2-2.2,0.1
		c-0.9-0.2-1.6-0.7-2.1-1.5c-0.4-0.6-0.7-1.3-0.8-2.1c-0.2-1.4-0.2-2.7,0.1-4.1c0.2-0.8,0.5-1.5,1.1-2.1c1-1.1,2.3-1.5,3.8-1.2
		C110.5,15.6,110.7,15.7,110.8,15.7z"/>
	<polygon class="st0" points="287.1,15.6 287.1,17.2 285.1,17.2 285.1,26.5 283.3,26.5 283.3,17.2 281.4,17.2 281.4,15.6 	"/>
	<polygon class="st0" points="218.3,26.6 216.6,26.6 216.6,15.6 218.3,15.6 	"/>
	<path class="st0" d="M274.9,26.6h-1.6c-0.1-0.4-0.1-10.5,0-11h1.7L274.9,26.6z"/>
</g>
</svg>
