<?xml version="1.0" encoding="UTF-8"?>
<svg width="16px" height="16px" viewBox="0 0 16 16" version="1.1" xmlns="http://www.w3.org/2000/svg" xmlns:xlink="http://www.w3.org/1999/xlink">
    <title>Shape</title>
    <g id="Responsive" stroke="none" stroke-width="1" fill="none" fill-rule="evenodd">
        <g id="TopNav_mobile" transform="translate(-200.000000, -328.000000)" fill="#FFFFFF" fill-rule="nonzero">
            <path d="M216,342.190433 L211.739252,337.929712 C212.409661,336.91705 212.799806,335.705067 212.799806,334.400394 C212.799806,330.865231 209.934567,328 206.399919,328 C202.865208,328 200,330.865231 200,334.400394 C200,337.934587 202.865239,340.800788 206.399919,340.800788 C207.704079,340.800788 208.917515,340.409242 209.929223,339.739279 L214.189939,344 L216,342.190433 Z M201.813498,334.401363 C201.813498,331.868144 203.867196,329.815411 206.399919,329.815411 C208.933141,329.815411 210.986808,331.868144 210.986808,334.401363 C210.986808,336.934613 208.93311,338.988283 206.399919,338.988283 C203.867196,338.988283 201.813498,336.934613 201.813498,334.401363 Z" id="Shape"></path>
        </g>
    </g>
</svg>