<svg version="1.1" id="Layer_1" xmlns="http://www.w3.org/2000/svg" x="0" y="0" viewBox="0 0 170.7 105"
	xml:space="preserve">
	<style>
		.st0 {
			fill: #fff
		}
	</style>
	<path class="st0"
		d="M167 85.3c2.9-1.1 4.3-4.4 3.2-7.3-.6-1.6-2-2.8-3.6-3.3l-.6-43.4c0-.6-.4-1.2-1-1.5L85.2.1c-.4-.1-.7-.1-1.1 0l-83 29.1c-.8.3-1.3 1.2-1 2 .2.4.5.8.9 1l81.2 31.6c1.6.6 3.4.6 5 0l76-30.7v41.6c-3 1-4.6 4.2-3.6 7.1.5 1.6 1.7 2.8 3.3 3.5-1 1.8-4.2 7.7-4.2 13.7 0 3.3 2.7 6 6 6s6-2.7 6-6c0-5.3-2.8-11.8-3.7-13.7z" />
	<path class="st0"
		d="M81.8 70.1c-20.4-8-55.3-21.8-55.3-21.8v27.3c3.8 9.3 22.6 25.8 58.2 25.8 38.9 0 56.8-23.6 57.3-24.8V48.9s-34.3 13.4-54.3 21.2c-1.9.8-4.1.8-5.9 0z" />
</svg>