<svg version="1.1" id="Layer_1" xmlns="http://www.w3.org/2000/svg" x="0" y="0" viewBox="0 0 135.4 135.3"
	xml:space="preserve">
	<style>
		.st0 {
			fill: #fff
		}
	</style>
	<path class="st0"
		d="M0 9.3v55.4h64.7V0H9.3C4.2 0 0 4.2 0 9.3zm17.3 25.8c0-2.1 1.7-3.7 3.7-3.7h6.9v-6.9c0-2.1 1.7-3.7 3.7-3.7h.4c2.1 0 3.7 1.7 3.7 3.7v6.9h6.9c2.1 0 3.7 1.7 3.7 3.7v.3c0 2.1-1.7 3.7-3.7 3.7h-6.9V46c0 2.1-1.7 3.7-3.7 3.7h-.3C29.6 49.7 28 48 28 46v-6.9h-6.9c-2.1 0-3.7-1.7-3.7-3.7l-.1-.3zM0 126.1c0 5.1 4.2 9.3 9.3 9.3h55.4V70.7H0v55.4zm21.4-28.2c-1.5-1.5-1.5-3.8 0-5.3l.2-.2c1.5-1.5 3.8-1.5 5.3 0l4.8 4.9 4.9-4.9c1.5-1.5 3.8-1.5 5.3 0l.2.2c1.5 1.5 1.5 3.8 0 5.3l-4.9 4.9 4.9 4.9c1.4 1.5 1.4 3.8 0 5.3l-.2.2c-1.5 1.5-3.8 1.5-5.3 0l-4.9-4.9-4.8 4.9c-1.5 1.5-3.8 1.5-5.3 0l-.2-.2c-1.5-1.5-1.5-3.8 0-5.3l4.9-4.9-4.9-4.9zM126.1 0H70.7v64.7h64.7V9.3c0-5.1-4.2-9.3-9.3-9.3zm-8.4 35.3c0 2.1-1.7 3.7-3.7 3.7H90.5c-2.1 0-3.7-1.7-3.7-3.7V35c0-2.1 1.7-3.7 3.7-3.7H114c2.1 0 3.7 1.7 3.7 3.7v.3zM70.7 135.3h55.4c5.1 0 9.3-4.2 9.3-9.3V70.7H70.7v64.6zm16.1-41.1c0-2.1 1.7-3.7 3.7-3.7H114c2 0 3.7 1.7 3.7 3.7v.4c0 2.1-1.7 3.7-3.7 3.7H90.5c-2.1 0-3.7-1.7-3.7-3.7v-.4zm0 16.4c0-2.1 1.7-3.7 3.7-3.7H114c2.1 0 3.7 1.7 3.7 3.7v.3c0 2.1-1.7 3.7-3.7 3.7H90.5c-2.1 0-3.7-1.7-3.7-3.7v-.3z" />
</svg>