<svg version="1.1" id="Layer_1" xmlns="http://www.w3.org/2000/svg" x="0" y="0" viewBox="0 0 161.6 151.7"
	xml:space="preserve">
	<style>
		.st0 {
			fill: #fff
		}
	</style>
	<path class="st0" d="M53.7 79.6C47.1 85 66 92.4 69.6 95.8c-1.6-6.4-3.9-17.2-11.5-17.5-1.6-.1-3.2.4-4.4 1.3z" />
	<path class="st0"
		d="M105.9 64.4c-3.8-4-8.3-7.4-13.1-10.1l-6.4 4.6c.4-3.4.7-5.8 1.1-8.5-3.2-2.3-6.3-4.6-9.5-6.9-3.3 2.6-6.3 4.9-9.3 7.2.4 2.8.7 5.2 1.1 8.4l-7-5c-3.7 3-7.5 6-11.2 9.2-1.4 1.3-2.6 3-3.4 4.7-.4.9-.8 3 .2 4 11.1-2.7 14.7-1.2 20.4 7.7 4.2 6.5 6.9 13.7 9.1 21.8 2.6-8.3 10-23.8 14.1-27.5 3.3-3.1 7-4.3 11.5-2.8 1.2.4 1.9.7 3.4 1.3 1.9-3.4.9-6-1-8.1zM41.9 24.1c9.8 12.1 23.8 21.4 36.1 6 25.5 25.9 31.4-17 56.9-13.7-3.9-5.9-7-7.2-15.1-6.6-28.2-13.2-55.5-13-83.7.2-5.4-.6-11.2-.3-14.8 6.9 7.9-.8 15.1 1.5 20.6 7.2zM0 105.6c2.4 3.6 4.4 7.5 9.2 10.6-.2-11.4-.6-21.8 4.3-31.6-5.7 6.2-11.9 12.1-13.5 21z" />
	<path class="st0"
		d="M92 81.7c-2.7 4-4.5 8.6-5.3 13.4 5.7-3.7 11.6-6.2 16.5-10.7 1.2-1.2 1.6-2.7.3-4.5-3.5-3.3-9.1-1.8-11.5 1.8z" />
	<path class="st0"
		d="M154.9 71.1c-1.2-7.9-2.3-15.1-3.6-22.2-.8-4.5-1.7-8.9-2.9-13.3-1.1-4.1-4-7.5-7.8-9.2 2.1 9.3 2.4 17.8-1.4 26.1-4.2 9-12.5 12-21.3 14.2 1.2 6.2-1.4 10.4-3.8 11.5 2 7.4.8 10.5-5.7 14.4-5.3 3.2-10.6 6.2-16 9.1-2.5 1.3-4.5 3.2-5.8 5.7-2.6 4.8-5.5 9.5-8.6 14.6-2.7-4.8-5-9-7.5-13-1.1-1.8-2.2-4-4-5.1-6.8-4.3-13.9-8.2-20.6-12-13.1 8.3-17.2 23.8-9.6 35.5.1-5.9.7-11.4 3.3-16.6 0 6.9 2.9 13.5 8.1 18 3.7 3 7.5 5.8 11.6 8.2 6.7 4.2 13.8 7.8 18.7 14.7 1-.7 14.4-11.8 21-15.8 10.8-6.6 22.6-11.3 32.3-19.7 2.8 5.3 3.2 8.4 2.6 18.1 2.8-1.8 5.2-3.5 7.7-4.9 6.3-3.3 7.5-12.1 5.8-26.3 2.6 4 5.1 8 7.7 12.1 4-5.2 6.3-11.5 6.5-18.1-6.9-9.3-11.8-19-13.5-31.4l6.8 5.4zM52.7 51.6l-4.4-4-5.1 1.9c-1.7.7-3.6.6-5.2-.2-3.5-1.6-6-4.6-7.1-8.3 2-.2 4.7-2.2 3.4-5.1-1.4-3.2-3.9-4-7.7-4.2-3.6 7.3-1.9 15.3 3.9 20 6.5 5.3 15.8 5.2 22.2-.1z" />
	<path class="st0"
		d="M124.6 52.4c6.8-5.5 8.6-12.6 5.2-20.5-3.3-1.5-6 .7-7.5 2.8-.7 1.6-.7 3.4.1 5 1.1 1.6 4.2.8 4.2.8-1.3 4.3-5.2 7.8-9.1 9.4-3.7 1.4-6.3-1.2-9.2-2.4l-5.1 4.2c7.2 4.9 15.9 5.1 21.4.7z" />
</svg>